<?xml version="1.0" standalone="no"?>
<!DOCTYPE svg PUBLIC "-//W3C//DTD SVG 20010904//EN"
 "http://www.w3.org/TR/2001/REC-SVG-20010904/DTD/svg10.dtd">
<svg version="1.0" xmlns="http://www.w3.org/2000/svg"
 width="102.000000pt" height="102.000000pt" viewBox="0 0 102.000000 102.000000"
 preserveAspectRatio="xMidYMid meet">
<metadata>
Created by potrace 1.14, written by Peter Selinger 2001-2017
</metadata>
<g transform="translate(0.000000,102.000000) scale(0.100000,-0.100000)"
fill="#000000" stroke="none">
<path d="M227 877 c-172 -65 -253 -227 -202 -405 60 -209 260 -354 484 -353
68 0 76 1 151 21 147 39 305 201 335 345 9 43 14 152 7 177 -5 20 -5 20 -19 2
-8 -10 -27 -44 -43 -74 -38 -74 -79 -118 -116 -126 -47 -9 -86 31 -140 144
-51 106 -80 149 -138 204 -87 83 -205 107 -319 65z"/>
</g>
</svg>
